# xmcd CD database file
#
# Track frame offsets:
#	150
#	18795
#	34107
#	48217
#	64242
#	80027
#	95625
#	113152
#	132587
#	147222
#	161907
#	177625
#	193320
#	210740
#	225032
#	244340
#	259510
#	281897
#	299065
#	318610
#	338500
#
# Disc length: 4759 seconds
#
# Revision: 1
# Processed by: cddbd v1.5PL3 Copyright (c) Steve Scherf et al.
# Submitted via: CDex 1.51
#
DISCID=45129515
DTITLE=Reba - Moments and Memories
DYEAR=2000
DGENRE=Country
TTITLE0=Coração vazio (We're all alone)
TTITLE1=Whoever's in New England
TTITLE2=Little rock
TTITLE3=Somebody should leave
TTITLE4=What am I gonna do about you
TTITLE5=One promise too late
TTITLE6=Is there life out there
TTITLE7=For my broken heart
TTITLE8=Walk on
TTITLE9=The greatest man I never knew
TTITLE10=What haven't I heard from you
TTITLE11=And still
TTITLE12=The heart is lonely hunter
TTITLE13=It's your call
TTITLE14=The night the lights went out in Georgia
TTITLE15=The heart won't lie
TTITLE16=Fancy
TTITLE17=Rumor has it
TTITLE18=Does he love you
TTITLE19=Misty Blue
TTITLE20=Sweet dreams
EXTD=YEAR: 2000
EXTT0=
EXTT1=
EXTT2=
EXTT3=
EXTT4=
EXTT5=
EXTT6=
EXTT7=
EXTT8=
EXTT9=
EXTT10=
EXTT11=
EXTT12=
EXTT13=
EXTT14=
EXTT15=Com Vince Gil\n\n
EXTT16=
EXTT17=
EXTT18=Com Linda Davis\n
EXTT19=
EXTT20=
PLAYORDER=
